<?xml version="1.0" encoding="UTF-8" standalone="no"?>
<!-- Created with Inkscape (http://www.inkscape.org/) -->

<svg
   width="62.243423mm"
   height="59.410748mm"
   viewBox="0 0 62.243423 59.410748"
   version="1.1"
   id="svg1"
   xml:space="preserve"
   xmlns="http://www.w3.org/2000/svg"
   xmlns:svg="http://www.w3.org/2000/svg"><defs
     id="defs1" /><g
     id="layer1"
     transform="translate(-131.75205,-161.55868)"><path
       style="fill:none;stroke:#ff0000;stroke-width:3;stroke-linecap:round;stroke-linejoin:round;stroke-dasharray:none;stroke-opacity:1"
       d="m 147.12234,214.00446 c 6.74448,-2.03835 9.81896,-8.30906 8.36568,-13.38908 -1.64689,-5.75678 0.26023,-11.18092 0.26023,-11.18092 0,0 -11.78162,-2.17516 -16.69345,-6.95237 -6.9681,-6.77712 -5.72498,-13.62863 -5.72498,-13.62863 0,0 10.39367,0.0158 18.07064,3.91933 7.67697,3.90355 13.0276,8.70214 13.0276,8.70214 0,0 8.32756,-3.64331 16.91537,0.52047 8.58779,4.16378 11.15205,14.21445 11.15205,14.21445 -2.73248,13.79252 -6.37872,14.02119 -8.72446,14.02119 -3.63043,0 -5.94079,3.25295 -5.42032,9.23839"
       id="path1-4" /><path
       style="fill:none;stroke:#ff0000;stroke-width:3;stroke-linecap:round;stroke-linejoin:round;stroke-dasharray:none;stroke-opacity:1"
       d="m 145.41338,170.53381 c -1.15038,-4.88896 -0.96637,-7.46516 -0.96637,-7.46516 0,0 8.18866,-0.46004 16.65335,4.50836 7.39136,4.33841 14.55564,12.65976 14.55564,12.65976"
       id="path2-5" /><circle
       style="fill:#ffffff;fill-opacity:1;stroke:#ff0000;stroke-width:3;stroke-linecap:round;stroke-linejoin:round;stroke-dasharray:none;stroke-opacity:1"
       id="path3-5"
       cx="174.16541"
       cy="192.60304"
       r="1.472119" /></g></svg>
